<svg xmlns="http://www.w3.org/2000/svg" width="150" height="50" xml:space="preserve"><defs><clipPath id="a"><path d="M0 792h612V0H0v792z"/></clipPath></defs><g clip-path="url(#a)" transform="matrix(1.25 0 0 -1.25 -305 520)"><path d="M0 0c2.437 0 4.412-2.383 4.412-5.324 0-2.942-1.975-5.324-4.412-5.324s-4.41 2.382-4.41 5.324C-4.41-2.383-2.437 0 0 0" style="fill:#fff;fill-opacity:1;fill-rule:nonzero;stroke:none" transform="translate(265.348 392.728)"/><path d="M0 0c2.437 0 4.412-2.383 4.412-5.324 0-2.942-1.975-5.324-4.412-5.324s-4.41 2.382-4.41 5.324C-4.41-2.383-2.437 0 0 0z" style="fill:none;stroke:#000;stroke-width:1.10000002;stroke-linecap:butt;stroke-linejoin:miter;stroke-miterlimit:4;stroke-opacity:1;stroke-dasharray:none" transform="translate(265.348 392.728)"/><path d="M0 0c.063.197.108.401.108.615 0 1.361-1.361 2.464-3.04 2.464S-5.971 1.976-5.971.615c0-.214.044-.418.108-.615H0z" style="fill:#fff;fill-opacity:1;fill-rule:nonzero;stroke:none" transform="translate(258.406 376.536)"/><path d="M0 0c.063.197.108.401.108.615 0 1.361-1.361 2.464-3.04 2.464S-5.971 1.976-5.971.615c0-.214.044-.418.108-.615H0z" style="fill:none;stroke:#000;stroke-width:1.10000002;stroke-linecap:round;stroke-linejoin:round;stroke-miterlimit:4;stroke-opacity:1;stroke-dasharray:none" transform="translate(258.406 376.536)"/><path d="M0 0c.063.197.107.401.107.615 0 1.361-1.361 2.464-3.04 2.464S-5.972 1.976-5.972.615c0-.214.044-.418.107-.615H0z" style="fill:#fff;fill-opacity:1;fill-rule:nonzero;stroke:none" transform="translate(269.052 376.536)"/><path d="M0 0c.063.197.107.401.107.615 0 1.361-1.361 2.464-3.04 2.464S-5.972 1.976-5.972.615c0-.214.044-.418.107-.615H0z" style="fill:none;stroke:#000;stroke-width:1.10000002;stroke-linecap:round;stroke-linejoin:round;stroke-miterlimit:4;stroke-opacity:1;stroke-dasharray:none" transform="translate(269.052 376.536)"/><path d="M0 0a2.702 2.702 0 1 0-5.404 0A2.702 2.702 0 0 0 0 0" style="fill:#fff;fill-opacity:1;fill-rule:nonzero;stroke:none" transform="translate(252.489 403.986)"/><path d="M0 0a2.702 2.702 0 1 0-5.404 0A2.702 2.702 0 0 0 0 0z" style="fill:none;stroke:#000;stroke-width:1.10000002;stroke-linecap:butt;stroke-linejoin:miter;stroke-miterlimit:4;stroke-opacity:1;stroke-dasharray:none" transform="translate(252.489 403.986)"/><path d="M0 0a2.702 2.702 0 1 0-5.404 0A2.702 2.702 0 0 0 0 0" style="fill:#fff;fill-opacity:1;fill-rule:nonzero;stroke:none" transform="translate(274.591 403.986)"/><path d="M0 0a2.702 2.702 0 1 0-5.404 0A2.702 2.702 0 0 0 0 0z" style="fill:none;stroke:#000;stroke-width:1.10000002;stroke-linecap:butt;stroke-linejoin:miter;stroke-miterlimit:4;stroke-opacity:1;stroke-dasharray:none" transform="translate(274.591 403.986)"/><path d="m0 0-5.404 1.272-1.986-6.278" style="fill:none;stroke:#000;stroke-width:1.10000002;stroke-linecap:round;stroke-linejoin:round;stroke-miterlimit:4;stroke-opacity:1;stroke-dasharray:none" transform="translate(268.329 413.47)"/><path d="M0 0c2.437 0 4.411-2.383 4.411-5.324 0-2.942-1.974-5.324-4.411-5.324-2.436 0-4.41 2.382-4.41 5.324C-4.41-2.383-2.436 0 0 0" style="fill:#fff;fill-opacity:1;fill-rule:nonzero;stroke:none" transform="translate(256.25 392.728)"/><path d="M0 0c2.437 0 4.411-2.383 4.411-5.324 0-2.942-1.974-5.324-4.411-5.324-2.436 0-4.41 2.382-4.41 5.324C-4.41-2.383-2.436 0 0 0z" style="fill:none;stroke:#000;stroke-width:1.10000002;stroke-linecap:butt;stroke-linejoin:miter;stroke-miterlimit:4;stroke-opacity:1;stroke-dasharray:none" transform="translate(256.25 392.728)"/><path d="M0 0a2.13 2.13 0 1 0-4.26 0A2.13 2.13 0 0 0 0 0" style="fill:#fff;fill-opacity:1;fill-rule:nonzero;stroke:none" transform="translate(272.664 413.033)"/><path d="M0 0a2.13 2.13 0 1 0-4.26 0A2.13 2.13 0 0 0 0 0z" style="fill:none;stroke:#000;stroke-width:1.10000002;stroke-linecap:butt;stroke-linejoin:miter;stroke-miterlimit:4;stroke-opacity:1;stroke-dasharray:none" transform="translate(272.664 413.033)"/><path d="M0 0h2.99c2.656 1.382 4.624 6.34 4.624 12.261 0 6.99-2.74 12.656-6.119 12.656-3.38 0-6.119-5.666-6.119-12.656C-4.624 6.34-2.656 1.382 0 0" style="fill:#fff;fill-opacity:1;fill-rule:nonzero;stroke:none" transform="translate(259.284 376.533)"/><path d="M0 0h2.99c2.656 1.382 4.624 6.34 4.624 12.261 0 6.99-2.74 12.656-6.119 12.656-3.38 0-6.119-5.666-6.119-12.656C-4.624 6.34-2.656 1.382 0 0z" style="fill:none;stroke:#000;stroke-width:1.10000002;stroke-linecap:butt;stroke-linejoin:miter;stroke-miterlimit:4;stroke-opacity:1;stroke-dasharray:none" transform="translate(259.284 376.533)"/><path d="M0 0c0-4.411-5.479-7.986-12.239-7.986-6.759 0-12.238 3.575-12.238 7.986s5.479 7.987 12.238 7.987C-5.479 7.987 0 4.411 0 0" style="fill:#fff;fill-opacity:1;fill-rule:nonzero;stroke:none" transform="translate(273.018 400.27)"/><path d="M0 0c0-4.411-5.479-7.986-12.239-7.986-6.759 0-12.238 3.575-12.238 7.986s5.479 7.987 12.238 7.987C-5.479 7.987 0 4.411 0 0z" style="fill:none;stroke:#000;stroke-width:1.10000002;stroke-linecap:butt;stroke-linejoin:miter;stroke-miterlimit:4;stroke-opacity:1;stroke-dasharray:none" transform="translate(273.018 400.27)"/><path d="M0 0h6.596" style="fill:none;stroke:#000;stroke-width:1.10000002;stroke-linecap:round;stroke-linejoin:round;stroke-miterlimit:4;stroke-opacity:1;stroke-dasharray:none" transform="translate(257.56 376.536)"/><path d="M0 0c0 .444.133.797.401 1.059.268.259.592.391.974.391a1.4 1.4 0 0 0 .993-.383C2.642.809 2.779.455 2.779 0v-1.441h.063A7.677 7.677 0 0 0 4.502.555c.687.593 1.407.907 2.159.938.422 0 .794-.14 1.12-.416.325-.277.49-.62.49-1.032 0-.482-.167-.835-.501-1.062-.334-.227-.82-.422-1.457-.587-.636-.166-1.049-.298-1.238-.403-1.531-.83-2.296-2.251-2.296-4.262v-8.276c0-.459-.129-.815-.387-1.067a1.312 1.312 0 0 0-.956-.379c-.401 0-.741.132-1.019.397-.279.267-.417.64-.417 1.115V0z" style="fill:#000;fill-opacity:1;fill-rule:nonzero;stroke:none" transform="translate(280.688 392.415)"/><path d="M0 0c0 .444.133.797.401 1.059.268.259.592.391.974.391a1.4 1.4 0 0 0 .993-.383C2.642.809 2.779.455 2.779 0v-1.441h.063A7.677 7.677 0 0 0 4.502.555c.687.593 1.407.907 2.159.938.422 0 .794-.14 1.12-.416.325-.277.49-.62.49-1.032 0-.482-.167-.835-.501-1.062-.334-.227-.82-.422-1.457-.587-.636-.166-1.049-.298-1.238-.403-1.531-.83-2.296-2.251-2.296-4.262v-8.276c0-.459-.129-.815-.387-1.067a1.312 1.312 0 0 0-.956-.379c-.401 0-.741.132-1.019.397-.279.267-.417.64-.417 1.115V0z" style="fill:none;stroke:#000;stroke-width:.59799999;stroke-linecap:butt;stroke-linejoin:miter;stroke-miterlimit:4;stroke-opacity:1;stroke-dasharray:none" transform="translate(280.688 392.415)"/><path d="M0 0h9.404c-.03 1.569-.448 2.826-1.253 3.781-.805.953-1.907 1.447-3.308 1.478-1.426 0-2.573-.463-3.444-1.383C.529 2.954.063 1.661 0 0m-2.845-.894c.063 1.46.399 2.843 1.005 4.155.607 1.308 1.472 2.368 2.596 3.183 1.123.814 2.444 1.23 3.962 1.251 1.473 0 2.782-.397 3.927-1.192 1.143-.795 2.026-1.847 2.648-3.157a9.464 9.464 0 0 0 .934-4.11c0-.916-.523-1.375-1.569-1.375H0c.021-1.136.263-2.097.729-2.879a4.437 4.437 0 0 1 1.869-1.754c.781-.387 1.646-.58 2.598-.58 1.667 0 3.199.589 4.593 1.769.48.347.833.519 1.058.519.314 0 .557-.117.733-.35a1.37 1.37 0 0 0 .262-.846c0-.357-.138-.7-.414-1.029-.629-.667-1.52-1.25-2.673-1.75s-2.394-.75-3.722-.75c-1.392 0-2.602.261-3.629.787C.376-8.479-.451-7.78-1.079-6.914a8.945 8.945 0 0 0-1.374 2.812 11.68 11.68 0 0 0-.454 3.051.984.984 0 0 1 .051.113c.007.025.011.038.011.044" style="fill:#000;fill-opacity:1;fill-rule:nonzero;stroke:none" transform="translate(292.51 386.213)"/><path d="M0 0h9.404c-.03 1.569-.448 2.826-1.253 3.781-.805.953-1.907 1.447-3.308 1.478-1.426 0-2.573-.463-3.444-1.383C.529 2.954.063 1.661 0 0zm-2.845-.894c.063 1.46.399 2.843 1.005 4.155.607 1.308 1.472 2.368 2.596 3.183 1.123.814 2.444 1.23 3.962 1.251 1.473 0 2.782-.397 3.927-1.192 1.143-.795 2.026-1.847 2.648-3.157a9.464 9.464 0 0 0 .934-4.11c0-.916-.523-1.375-1.569-1.375H0c.021-1.136.263-2.097.729-2.879a4.437 4.437 0 0 1 1.869-1.754c.781-.387 1.646-.58 2.598-.58 1.667 0 3.199.589 4.593 1.769.48.347.833.519 1.058.519.314 0 .557-.117.733-.35a1.37 1.37 0 0 0 .262-.846c0-.357-.138-.7-.414-1.029-.629-.667-1.52-1.25-2.673-1.75s-2.394-.75-3.722-.75c-1.392 0-2.602.261-3.629.787C.376-8.479-.451-7.78-1.079-6.914a8.945 8.945 0 0 0-1.374 2.812 11.68 11.68 0 0 0-.454 3.051.984.984 0 0 1 .051.113c.007.025.011.038.011.044z" style="fill:none;stroke:#000;stroke-width:.59799999;stroke-linecap:butt;stroke-linejoin:miter;stroke-miterlimit:4;stroke-opacity:1;stroke-dasharray:none" transform="translate(292.51 386.213)"/><path d="M0 0c0-1.734.374-3.213 1.124-4.436.747-1.222 1.865-1.863 3.348-1.918 1.182 0 2.139.305 2.876.92a5.062 5.062 0 0 1 1.567 2.338 10.4 10.4 0 0 1 .513 3.033c0 1.239-.2 2.34-.603 3.304-.4.963-.959 1.708-1.672 2.231a4.007 4.007 0 0 1-2.424.784c-1.064 0-1.946-.315-2.651-.936C1.374 4.695.857 3.909.529 2.963A9.827 9.827 0 0 1 0 0m9.107 6.389v8.415c0 .44.137.784.41 1.035.274.252.598.377.968.377.413 0 .755-.125 1.031-.376.274-.251.412-.616.412-1.096V-7.344c0-.455-.142-.808-.424-1.065a1.46 1.46 0 0 0-1.019-.383c-.353 0-.673.127-.956.382-.281.255-.422.589-.422.999v.922h-.065c-.303-.615-.798-1.142-1.488-1.586-.689-.443-1.62-.681-2.793-.717-1.505 0-2.828.367-3.963 1.104-1.137.735-2.017 1.76-2.645 3.077-.624 1.314-.948 2.806-.974 4.478 0 1.196.174 2.333.524 3.413.351 1.082.846 2.025 1.484 2.833a6.938 6.938 0 0 0 2.295 1.893c.892.457 1.87.686 2.933.686 1.917 0 3.462-.768 4.627-2.303h.065z" style="fill:#000;fill-opacity:1;fill-rule:nonzero;stroke:none" transform="translate(309.486 385.216)"/><path d="M0 0c0-1.734.374-3.213 1.124-4.436.747-1.222 1.865-1.863 3.348-1.918 1.182 0 2.139.305 2.876.92a5.062 5.062 0 0 1 1.567 2.338 10.4 10.4 0 0 1 .513 3.033c0 1.239-.2 2.34-.603 3.304-.4.963-.959 1.708-1.672 2.231a4.007 4.007 0 0 1-2.424.784c-1.064 0-1.946-.315-2.651-.936C1.374 4.695.857 3.909.529 2.963A9.827 9.827 0 0 1 0 0zm9.107 6.389v8.415c0 .44.137.784.41 1.035.274.252.598.377.968.377.413 0 .755-.125 1.031-.376.274-.251.412-.616.412-1.096V-7.344c0-.455-.142-.808-.424-1.065a1.46 1.46 0 0 0-1.019-.383c-.353 0-.673.127-.956.382-.281.255-.422.589-.422.999v.922h-.065c-.303-.615-.798-1.142-1.488-1.586-.689-.443-1.62-.681-2.793-.717-1.505 0-2.828.367-3.963 1.104-1.137.735-2.017 1.76-2.645 3.077-.624 1.314-.948 2.806-.974 4.478 0 1.196.174 2.333.524 3.413.351 1.082.846 2.025 1.484 2.833a6.938 6.938 0 0 0 2.295 1.893c.892.457 1.87.686 2.933.686 1.917 0 3.462-.768 4.627-2.303h.065z" style="fill:none;stroke:#000;stroke-width:.59799999;stroke-linecap:butt;stroke-linejoin:miter;stroke-miterlimit:4;stroke-opacity:1;stroke-dasharray:none" transform="translate(309.486 385.216)"/><path d="M0 0c0-1.734.373-3.213 1.123-4.436.749-1.222 1.865-1.863 3.349-1.918 1.182 0 2.141.305 2.872.92a5.04 5.04 0 0 1 1.571 2.338 10.4 10.4 0 0 1 .512 3.033c0 1.239-.2 2.34-.601 3.304-.4.963-.959 1.708-1.673 2.231a4.01 4.01 0 0 1-2.424.784c-1.064 0-1.948-.315-2.652-.936C1.372 4.695.858 3.909.53 2.963A9.736 9.736 0 0 1 0 0m9.104 6.389v8.415c0 .44.138.784.414 1.035.274.252.595.377.966.377.412 0 .758-.125 1.031-.376.275-.251.411-.616.411-1.096V-7.344c0-.455-.141-.808-.422-1.065a1.467 1.467 0 0 0-1.02-.383c-.354 0-.673.127-.955.382-.282.255-.425.589-.425.999v.922h-.062c-.304-.615-.799-1.142-1.488-1.586-.688-.443-1.619-.681-2.793-.717-1.506 0-2.827.367-3.964 1.104-1.138.735-2.018 1.76-2.643 3.077-.624 1.314-.95 2.806-.975 4.478 0 1.196.175 2.333.525 3.413.351 1.082.844 2.025 1.482 2.833a6.948 6.948 0 0 0 2.295 1.893c.892.457 1.87.686 2.932.686 1.918 0 3.462-.768 4.629-2.303h.062z" style="fill:#000;fill-opacity:1;fill-rule:nonzero;stroke:none" transform="translate(327.347 385.216)"/><path d="M0 0c0-1.734.373-3.213 1.123-4.436.749-1.222 1.865-1.863 3.349-1.918 1.182 0 2.141.305 2.872.92a5.04 5.04 0 0 1 1.571 2.338 10.4 10.4 0 0 1 .512 3.033c0 1.239-.2 2.34-.601 3.304-.4.963-.959 1.708-1.673 2.231a4.01 4.01 0 0 1-2.424.784c-1.064 0-1.948-.315-2.652-.936C1.372 4.695.858 3.909.53 2.963A9.736 9.736 0 0 1 0 0zm9.104 6.389v8.415c0 .44.138.784.414 1.035.274.252.595.377.966.377.412 0 .758-.125 1.031-.376.275-.251.411-.616.411-1.096V-7.344c0-.455-.141-.808-.422-1.065a1.467 1.467 0 0 0-1.02-.383c-.354 0-.673.127-.955.382-.282.255-.425.589-.425.999v.922h-.062c-.304-.615-.799-1.142-1.488-1.586-.688-.443-1.619-.681-2.793-.717-1.506 0-2.827.367-3.964 1.104-1.138.735-2.018 1.76-2.643 3.077-.624 1.314-.95 2.806-.975 4.478 0 1.196.175 2.333.525 3.413.351 1.082.844 2.025 1.482 2.833a6.948 6.948 0 0 0 2.295 1.893c.892.457 1.87.686 2.932.686 1.918 0 3.462-.768 4.629-2.303h.062z" style="fill:none;stroke:#000;stroke-width:.59799999;stroke-linecap:butt;stroke-linejoin:miter;stroke-miterlimit:4;stroke-opacity:1;stroke-dasharray:none" transform="translate(327.347 385.216)"/><path d="M0 0h-1.245c-.4 0-.721.114-.963.341-.24.227-.379.509-.421.843.083.836.545 1.254 1.384 1.254H0v3.814c0 .416.134.74.4.97.267.228.591.343.978.343.41 0 .755-.116 1.031-.348.275-.233.415-.577.415-1.035V2.438h1.243c.429 0 .755-.116.979-.345.225-.23.338-.531.338-.909 0-.32-.113-.596-.329-.83A1.118 1.118 0 0 0 4.201 0H2.824v-13.488c0-.429-.149-.768-.443-1.017a1.598 1.598 0 0 0-1.065-.371c-.37 0-.685.123-.935.371-.252.249-.381.609-.381 1.078V0z" style="fill:#000;fill-opacity:1;fill-rule:nonzero;stroke:none" transform="translate(351.747 391.3)"/><path d="M0 0h-1.245c-.4 0-.721.114-.963.341-.24.227-.379.509-.421.843.083.836.545 1.254 1.384 1.254H0v3.814c0 .416.134.74.4.97.267.228.591.343.978.343.41 0 .755-.116 1.031-.348.275-.233.415-.577.415-1.035V2.438h1.243c.429 0 .755-.116.979-.345.225-.23.338-.531.338-.909 0-.32-.113-.596-.329-.83A1.118 1.118 0 0 0 4.201 0H2.824v-13.488c0-.429-.149-.768-.443-1.017a1.598 1.598 0 0 0-1.065-.371c-.37 0-.685.123-.935.371-.252.249-.381.609-.381 1.078V0z" style="fill:none;stroke:#000;stroke-width:.59799999;stroke-linecap:butt;stroke-linejoin:miter;stroke-miterlimit:4;stroke-opacity:1;stroke-dasharray:none" transform="translate(351.747 391.3)"/><path d="M0 0a2.31 2.31 0 1 0-4.619 0A2.31 2.31 0 0 0 0 0" style="fill:#fff;fill-opacity:1;fill-rule:nonzero;stroke:none" transform="translate(346.86 398.509)"/><path d="M0 0a2.31 2.31 0 1 0-4.619 0A2.31 2.31 0 0 0 0 0z" style="fill:none;stroke:#000;stroke-width:1.60000002;stroke-linecap:butt;stroke-linejoin:miter;stroke-miterlimit:4;stroke-opacity:1;stroke-dasharray:none" transform="translate(346.86 398.509)"/><path d="M0 0v-14.792" style="fill:none;stroke:#000;stroke-width:3.3599999;stroke-linecap:round;stroke-linejoin:miter;stroke-miterlimit:4;stroke-opacity:1;stroke-dasharray:none" transform="translate(344.556 392.567)"/><path d="M0 0a1.43 1.43 0 1 0-2.86 0A1.43 1.43 0 0 0 0 0" style="fill:#ff4500;fill-opacity:1;fill-rule:nonzero;stroke:none" transform="translate(257.96 401.829)"/><path d="M0 0a1.43 1.43 0 1 0-2.86 0A1.43 1.43 0 0 0 0 0z" style="fill:none;stroke:#ff4500;stroke-width:1.10000002;stroke-linecap:butt;stroke-linejoin:miter;stroke-miterlimit:4;stroke-opacity:1;stroke-dasharray:none" transform="translate(257.96 401.829)"/><path d="M0 0a1.43 1.43 0 1 0-2.86 0A1.43 1.43 0 0 0 0 0" style="fill:#ff4500;fill-opacity:1;fill-rule:nonzero;stroke:none" transform="translate(266.583 401.829)"/><path d="M0 0a1.43 1.43 0 1 0-2.86 0A1.43 1.43 0 0 0 0 0z" style="fill:none;stroke:#ff4500;stroke-width:1.10000002;stroke-linecap:butt;stroke-linejoin:miter;stroke-miterlimit:4;stroke-opacity:1;stroke-dasharray:none" transform="translate(266.583 401.829)"/><path d="M0 0c1.066-1.066 2.786-1.271 4.212-1.271" style="fill:none;stroke:#000;stroke-width:1.10000002;stroke-linecap:round;stroke-linejoin:miter;stroke-miterlimit:4;stroke-opacity:1;stroke-dasharray:none" transform="translate(256.61 396.593)"/><path d="M0 0c-1.067-1.066-2.785-1.271-4.212-1.271" style="fill:none;stroke:#000;stroke-width:1.10000002;stroke-linecap:round;stroke-linejoin:miter;stroke-miterlimit:4;stroke-opacity:1;stroke-dasharray:none" transform="translate(265.065 396.593)"/></g></svg>